<svg class="icon" viewBox="0 0 1024 1024" xmlns="http://www.w3.org/2000/svg" width="128" height="128"><defs><style/></defs><path d="M382.624 712.92v-49.408H282.136V622.32l106.52-155.92h39.52v155.752h30.48v41.368h-30.48v49.408h-45.552zm0-90.768v-83.904l-56.44 83.896h56.44zM560.648 466.4c23.784 0 42.368 8.488 55.768 25.456 15.968 20.096 23.952 53.424 23.952 99.984 0 46.456-8.04 79.832-24.12 100.152-13.288 16.752-31.824 25.128-55.6 25.128-23.896 0-43.16-9.176-57.776-27.544-14.632-18.368-21.944-51.112-21.944-98.224 0-46.224 8.04-79.496 24.12-99.816 13.28-16.76 31.816-25.136 55.6-25.136zm0 39.024a23.52 23.52 0 0 0-15.24 5.44c-4.472 3.632-7.928 10.136-10.384 19.512-3.24 12.168-4.856 32.656-4.856 61.464s1.456 48.6 4.36 59.376c2.896 10.776 6.552 17.944 10.968 21.512 4.408 3.576 9.464 5.36 15.16 5.36s10.776-1.816 15.24-5.448c4.464-3.624 7.92-10.128 10.384-19.504 3.232-12.056 4.848-32.496 4.848-61.296s-1.456-48.592-4.352-59.368c-2.904-10.776-6.56-17.976-10.968-21.608a23.216 23.216 0 0 0-15.16-5.44zM792.264 712.92H745.2V535.568c-17.192 16.072-37.464 27.968-60.792 35.672v-42.712c12.28-4.016 25.624-11.64 40.024-22.856 14.408-11.216 24.28-24.312 29.64-39.272h38.184v246.52z"/><path d="M893.232 249.024c0-13.904-13.128-25.176-29.32-25.176H160.096c-16.208 0-29.328 11.272-29.328 25.176v528.648c0 13.904 13.128 25.16 29.328 25.16h187.808v-34.816h-178.4V258.68h685V442.8h38.736V249.024z"/></svg>