<svg class="icon" viewBox="0 0 1024 1024" xmlns="http://www.w3.org/2000/svg" width="128" height="128"><defs><style/></defs><path d="M973.558 586.146v79.592c31.643-60.648 49.572-128.348 49.572-199.88C1023.13 208.755 794.07.207 511.664.207 229.266.206.206 208.754.206 465.86c0 3.222.224 6.445.224 9.676l183.686-207.54h106.677L132.777 485.402h51.34v-55.21L293.895 274.44v394.729h-109.78v-83.023H17.463C65.053 748.353 206.251 875.693 385.3 917.205c-11.515 26.39-44.926 90.067-100.48 101.35-68.828 14.107 186.79 3.423 369.156-105.38 140.095-36.874 255.4-126.742 318.032-244.006H864.002v-83.023h-183.91v-110.42l183.91-207.732h104.022l-155.37 217.409h51.348v-59.44l109.772-155.154v315.337h-.216zM347.89 608.713a84.094 84.094 0 0 1-7.965-36.265V356.447c0-12.9 2.655-24.982 7.965-36.266a93.242 93.242 0 0 1 21.695-29.428c9.069-8.253 19.912-14.906 32.307-19.736 12.395-4.838 25.67-7.261 39.84-7.261h90.3c14.154 0 27.437 2.423 39.832 7.261 12.171 4.83 22.79 11.276 31.875 19.336l-98.04 130.372V397.55a15.674 15.674 0 0 0-5.318-12.091c-3.543-3.223-7.965-4.83-13.275-4.83-5.318 0-9.74 1.607-13.283 4.83a15.674 15.674 0 0 0-5.31 12.091v72.539L354.976 620.804a84.414 84.414 0 0 1-7.085-12.091zm285.725-36.265c0 12.898-2.655 24.982-7.973 36.265a93.242 93.242 0 0 1-21.687 29.428c-9.068 8.253-19.912 14.906-32.307 19.744-12.395 4.83-25.67 7.253-39.84 7.253h-90.3c-14.154 0-27.437-2.423-39.832-7.253-12.395-4.838-23.238-11.491-32.315-19.752a99.88 99.88 0 0 1-11.067-12.091l109.772-145.677v50.98c0 4.837 1.775 8.868 5.318 12.09 3.534 3.223 7.964 4.83 13.274 4.83 5.31 0 9.74-1.607 13.275-4.83a15.674 15.674 0 0 0 5.318-12.09V430.992l102.47-136.201c7.301 7.453 13.275 15.913 17.705 25.39 5.31 11.275 7.965 23.366 7.965 36.265v216h.224z"/></svg>